<?xml version="1.0" standalone="no"?>
<!DOCTYPE svg PUBLIC "-//W3C//DTD SVG 20010904//EN"
 "http://www.w3.org/TR/2001/REC-SVG-20010904/DTD/svg10.dtd">
<svg version="1.0" xmlns="http://www.w3.org/2000/svg"
 width="100.000000pt" height="60.000000pt" viewBox="0 0 100.000000 60.000000"
 preserveAspectRatio="xMidYMid meet">

<g transform="translate(0.000000,60.000000) scale(0.100000,-0.100000)"
fill="#000000" stroke="none">
<path d="M130 510 l0 -30 60 0 60 0 0 -120 0 -120 -30 0 c-27 0 -30 -3 -30
-30 0 -27 -3 -30 -30 -30 l-30 0 0 60 0 60 -30 0 -30 0 0 -60 0 -60 30 0 c27
0 30 -3 30 -30 l0 -30 90 0 90 0 0 180 0 180 30 0 c27 0 30 3 30 30 l0 30
-120 0 -120 0 0 -30z"/>
<path d="M380 505 c0 -8 7 -15 15 -15 11 0 15 -12 15 -45 0 -33 -4 -45 -15
-45 -8 0 -15 -7 -15 -15 0 -11 12 -15 45 -15 33 0 45 4 45 15 0 8 -7 15 -15
15 -11 0 -15 12 -15 45 0 33 4 45 15 45 8 0 15 7 15 15 0 11 -12 15 -45 15
-33 0 -45 -4 -45 -15z"/>
<path d="M500 445 l0 -75 45 0 c33 0 45 4 45 15 0 8 7 15 15 15 8 0 15 7 15
15 0 8 -7 15 -15 15 -8 0 -15 7 -15 15 0 8 7 15 15 15 8 0 15 7 15 15 0 8 -7
15 -15 15 -8 0 -15 7 -15 15 0 11 -12 15 -45 15 l-45 0 0 -75z m90 30 c0 -10
-10 -15 -30 -15 -20 0 -30 5 -30 15 0 10 10 15 30 15 20 0 30 -5 30 -15z m0
-60 c0 -10 -10 -15 -30 -15 -20 0 -30 5 -30 15 0 10 10 15 30 15 20 0 30 -5
30 -15z"/>
<path d="M650 445 l0 -75 60 0 c47 0 60 3 60 15 0 11 -12 15 -45 15 -33 0 -45
4 -45 15 0 10 10 15 30 15 20 0 30 5 30 15 0 10 -10 15 -30 15 -20 0 -30 5
-30 15 0 11 12 15 45 15 33 0 45 4 45 15 0 12 -13 15 -60 15 l-60 0 0 -75z"/>
<path d="M800 445 l0 -75 60 0 c47 0 60 3 60 15 0 11 -12 15 -45 15 -33 0 -45
4 -45 15 0 10 10 15 30 15 20 0 30 5 30 15 0 10 -10 15 -30 15 -20 0 -30 5
-30 15 0 11 12 15 45 15 33 0 45 4 45 15 0 12 -13 15 -60 15 l-60 0 0 -75z"/>
</g>
</svg>
